<svg width="308" height="117" viewBox="0 0 308 117" fill="none" xmlns="http://www.w3.org/2000/svg">
<path d="M41.0951 94.924C36.8345 94.924 32.7021 94.3593 28.6981 93.23C24.7455 92.0493 21.5628 90.535 19.1501 88.687L23.3851 79.293C25.6951 80.987 28.4415 82.3473 31.6241 83.374C34.8068 84.4007 37.9895 84.914 41.1721 84.914C44.7141 84.914 47.3321 84.4007 49.0261 83.374C50.7201 82.296 51.5671 80.8843 51.5671 79.139C51.5671 77.8557 51.0538 76.8033 50.0271 75.982C49.0518 75.1093 47.7685 74.4163 46.1771 73.903C44.6371 73.3897 42.5325 72.825 39.8631 72.209C35.7565 71.2337 32.3941 70.2583 29.7761 69.283C27.1581 68.3077 24.8995 66.742 23.0001 64.586C21.1521 62.43 20.2281 59.5553 20.2281 55.962C20.2281 52.8307 21.0751 50.0073 22.7691 47.492C24.4631 44.9253 27.0041 42.8977 30.3921 41.409C33.8315 39.9203 38.0151 39.176 42.9431 39.176C46.3825 39.176 49.7448 39.5867 53.0301 40.408C56.3155 41.2293 59.1901 42.41 61.6541 43.95L57.8041 53.421C52.8248 50.5977 47.8455 49.186 42.8661 49.186C39.3755 49.186 36.7831 49.7507 35.0891 50.88C33.4465 52.0093 32.6251 53.498 32.6251 55.346C32.6251 57.194 33.5748 58.58 35.4741 59.504C37.4248 60.3767 40.3765 61.2493 44.3291 62.122C48.4358 63.0973 51.7981 64.0727 54.4161 65.048C57.0341 66.0233 59.2671 67.5633 61.1151 69.668C63.0145 71.7727 63.9641 74.6217 63.9641 78.215C63.9641 81.295 63.0915 84.1183 61.3461 86.685C59.6521 89.2003 57.0855 91.2023 53.6461 92.691C50.2068 94.1797 46.0231 94.924 41.0951 94.924ZM121.922 40.1V94H111.681L84.8077 61.275V94H72.4877V40.1H82.8057L109.602 72.825V40.1H121.922ZM154.309 72.825L147.071 80.371V94H134.674V40.1H147.071V65.279L170.941 40.1H184.801L162.471 64.124L186.11 94H171.557L154.309 72.825ZM226.014 94L215.619 78.985H215.003H204.146V94H191.672V40.1H215.003C219.777 40.1 223.91 40.8957 227.4 42.487C230.942 44.0783 233.663 46.337 235.562 49.263C237.462 52.189 238.411 55.654 238.411 59.658C238.411 63.662 237.436 67.127 235.485 70.053C233.586 72.9277 230.865 75.135 227.323 76.675L239.412 94H226.014ZM225.783 59.658C225.783 56.6293 224.808 54.3193 222.857 52.728C220.907 51.0853 218.058 50.264 214.31 50.264H204.146V69.052H214.31C218.058 69.052 220.907 68.2307 222.857 66.588C224.808 64.9453 225.783 62.6353 225.783 59.658ZM266.004 94.924C261.744 94.924 257.611 94.3593 253.607 93.23C249.655 92.0493 246.472 90.535 244.059 88.687L248.294 79.293C250.604 80.987 253.351 82.3473 256.533 83.374C259.716 84.4007 262.899 84.914 266.081 84.914C269.623 84.914 272.241 84.4007 273.935 83.374C275.629 82.296 276.476 80.8843 276.476 79.139C276.476 77.8557 275.963 76.8033 274.936 75.982C273.961 75.1093 272.678 74.4163 271.086 73.903C269.546 73.3897 267.442 72.825 264.772 72.209C260.666 71.2337 257.303 70.2583 254.685 69.283C252.067 68.3077 249.809 66.742 247.909 64.586C246.061 62.43 245.137 59.5553 245.137 55.962C245.137 52.8307 245.984 50.0073 247.678 47.492C249.372 44.9253 251.913 42.8977 255.301 41.409C258.741 39.9203 262.924 39.176 267.852 39.176C271.292 39.176 274.654 39.5867 277.939 40.408C281.225 41.2293 284.099 42.41 286.563 43.95L282.713 53.421C277.734 50.5977 272.755 49.186 267.775 49.186C264.285 49.186 261.692 49.7507 259.998 50.88C258.356 52.0093 257.534 53.498 257.534 55.346C257.534 57.194 258.484 58.58 260.383 59.504C262.334 60.3767 265.286 61.2493 269.238 62.122C273.345 63.0973 276.707 64.0727 279.325 65.048C281.943 66.0233 284.176 67.5633 286.024 69.668C287.924 71.7727 288.873 74.6217 288.873 78.215C288.873 81.295 288.001 84.1183 286.255 86.685C284.561 89.2003 281.995 91.2023 278.555 92.691C275.116 94.1797 270.932 94.924 266.004 94.924Z" fill="black"/>
<path d="M28.6981 93.23L28.4119 94.1882L28.4193 94.1904L28.4267 94.1924L28.6981 93.23ZM19.1501 88.687L18.2385 88.276L17.9127 88.9988L18.5421 89.4809L19.1501 88.687ZM23.3851 79.293L23.9765 78.4866L22.9809 77.7565L22.4735 78.882L23.3851 79.293ZM31.6241 83.374L31.9311 82.4223L31.9311 82.4223L31.6241 83.374ZM49.0261 83.374L49.5444 84.2292L49.5538 84.2235L49.563 84.2177L49.0261 83.374ZM50.0271 75.982L49.3603 76.7272L49.3809 76.7456L49.4024 76.7629L50.0271 75.982ZM46.1771 73.903L45.8609 74.8517L45.8701 74.8547L46.1771 73.903ZM39.8631 72.209L39.6321 73.182L39.6383 73.1834L39.8631 72.209ZM29.7761 69.283L30.1253 68.3459L30.1253 68.3459L29.7761 69.283ZM23.0001 64.586L22.2408 65.2368L22.2498 65.247L23.0001 64.586ZM22.7691 47.492L23.5986 48.0506L23.6038 48.0428L22.7691 47.492ZM30.3921 41.409L29.9949 40.4913L29.9899 40.4935L30.3921 41.409ZM53.0301 40.408L53.2727 39.4379L53.2727 39.4379L53.0301 40.408ZM61.6541 43.95L62.5805 44.3266L62.8972 43.5476L62.1841 43.102L61.6541 43.95ZM57.8041 53.421L57.3109 54.2909L58.3016 54.8526L58.7305 53.7976L57.8041 53.421ZM35.0891 50.88L34.5344 50.0479L34.5285 50.0519L34.5226 50.056L35.0891 50.88ZM35.4741 59.504L35.0367 60.4032L35.0511 60.4103L35.0658 60.4168L35.4741 59.504ZM44.3291 62.122L44.5602 61.1491L44.5525 61.1472L44.5447 61.1455L44.3291 62.122ZM54.4161 65.048L54.7653 64.1109L54.7653 64.1109L54.4161 65.048ZM61.1151 69.668L60.3636 70.3279L60.3727 70.338L61.1151 69.668ZM61.3461 86.685L60.5192 86.1227L60.5167 86.1264L61.3461 86.685ZM53.6461 92.691L53.2489 91.7733L53.2489 91.7733L53.6461 92.691ZM41.0951 93.924C36.924 93.924 32.8831 93.3714 28.9696 92.2676L28.4267 94.1924C32.5211 95.3473 36.7449 95.924 41.0951 95.924V93.924ZM28.9843 92.2718C25.1092 91.1143 22.0468 89.6461 19.7582 87.8931L18.5421 89.4809C21.0788 91.4239 24.3818 92.9844 28.4119 94.1882L28.9843 92.2718ZM20.0618 89.098L24.2968 79.704L22.4735 78.882L18.2385 88.276L20.0618 89.098ZM22.7938 80.0994C25.2033 81.8664 28.0492 83.2715 31.3171 84.3257L31.9311 82.4223C28.8338 81.4231 26.187 80.1076 23.9765 78.4866L22.7938 80.0994ZM31.3171 84.3257C34.5939 85.3827 37.8801 85.914 41.1721 85.914V83.914C38.0989 83.914 35.0197 83.4186 31.9311 82.4223L31.3171 84.3257ZM41.1721 85.914C44.7725 85.914 47.6141 85.3991 49.5444 84.2292L48.5078 82.5188C47.0502 83.4022 44.6558 83.914 41.1721 83.914V85.914ZM49.563 84.2177C51.4945 82.9885 52.5671 81.2826 52.5671 79.139H50.5671C50.5671 80.4861 49.9458 81.6035 48.4893 82.5303L49.563 84.2177ZM52.5671 79.139C52.5671 77.5433 51.909 76.2068 50.6518 75.2011L49.4024 76.7629C50.1987 77.3998 50.5671 78.168 50.5671 79.139H52.5671ZM50.6939 75.2368C49.5898 74.2488 48.173 73.4961 46.4841 72.9513L45.8701 74.8547C47.364 75.3366 48.5138 75.9698 49.3603 76.7272L50.6939 75.2368ZM46.4934 72.9543C44.9099 72.4265 42.7703 71.8536 40.088 71.2346L39.6383 73.1834C42.2946 73.7964 44.3644 74.3528 45.8609 74.8517L46.4934 72.9543ZM40.0942 71.2361C36.0096 70.266 32.6905 69.3016 30.1253 68.3459L29.427 70.2201C32.0977 71.2151 35.5034 72.2014 39.6321 73.1819L40.0942 71.2361ZM30.1253 68.3459C27.6662 67.4298 25.5441 65.9609 23.7505 63.925L22.2498 65.247C24.2548 67.523 26.6501 69.1855 29.427 70.2201L30.1253 68.3459ZM23.7594 63.9352C22.1045 62.0045 21.2281 59.3818 21.2281 55.962H19.2281C19.2281 59.7289 20.1998 62.8555 22.2409 65.2368L23.7594 63.9352ZM21.2281 55.962C21.2281 53.0228 22.0195 50.3952 23.5986 48.0506L21.9397 46.9334C20.1307 49.6194 19.2281 52.6385 19.2281 55.962H21.2281ZM23.6038 48.0428C25.1719 45.6669 27.5464 43.7517 30.7944 42.3245L29.9899 40.4935C26.4619 42.0437 23.7544 44.1838 21.9345 46.9412L23.6038 48.0428ZM30.7894 42.3267C34.0705 40.9065 38.1108 40.176 42.9431 40.176V38.176C37.9195 38.176 33.5925 38.9341 29.9949 40.4913L30.7894 42.3267ZM42.9431 40.176C46.302 40.176 49.5828 40.5769 52.7876 41.3781L53.2727 39.4379C49.9068 38.5964 46.463 38.176 42.9431 38.176V40.176ZM52.7876 41.3781C55.9877 42.1782 58.7623 43.3218 61.1241 44.798L62.1841 43.102C59.618 41.4982 56.6432 40.2805 53.2727 39.4379L52.7876 41.3781ZM60.7278 43.5734L56.8778 53.0444L58.7305 53.7976L62.5805 44.3266L60.7278 43.5734ZM58.2974 52.5511C53.1904 49.6554 48.0428 48.186 42.8661 48.186V50.186C47.6482 50.186 52.4592 51.5399 57.3109 54.2909L58.2974 52.5511ZM42.8661 48.186C39.3033 48.186 36.4727 48.7558 34.5344 50.0479L35.6438 51.712C37.0936 50.7456 39.4477 50.186 42.8661 50.186V48.186ZM34.5226 50.056C32.6338 51.3545 31.6251 53.1393 31.6251 55.346H33.6251C33.6251 53.8567 34.2592 52.6641 35.6557 51.704L34.5226 50.056ZM31.6251 55.346C31.6251 56.4507 31.9122 57.4607 32.5125 58.3367C33.1075 59.2051 33.9706 59.8846 35.0367 60.4032L35.9116 58.6048C35.0784 58.1994 34.517 57.7239 34.1623 57.2063C33.8129 56.6963 33.6251 56.0893 33.6251 55.346H31.6251ZM35.0658 60.4168C37.111 61.3318 40.1422 62.2217 44.1136 63.0985L44.5447 61.1455C40.6107 60.277 37.7386 59.4216 35.8825 58.5912L35.0658 60.4168ZM44.0981 63.0949C48.1827 64.065 51.5017 65.0294 54.067 65.9851L54.7653 64.1109C52.0945 63.1159 48.6889 62.1296 44.5602 61.1491L44.0981 63.0949ZM54.067 65.9851C56.5296 66.9025 58.6245 68.3471 60.3637 70.3278L61.8666 69.0082C59.9098 66.7796 57.5386 65.1441 54.7653 64.1109L54.067 65.9851ZM60.3727 70.338C62.0655 72.2137 62.9641 74.8006 62.9641 78.215H64.9641C64.9641 74.4427 63.9635 71.3317 61.8575 68.998L60.3727 70.338ZM62.9641 78.215C62.9641 81.0928 62.1527 83.7205 60.5192 86.1227L62.1731 87.2473C64.0302 84.5162 64.9641 81.4972 64.9641 78.215H62.9641ZM60.5167 86.1264C58.9522 88.4495 56.5542 90.3426 53.2489 91.7733L54.0434 93.6087C57.6167 92.0621 60.3521 89.9512 62.1756 87.2436L60.5167 86.1264ZM53.2489 91.7733C49.9678 93.1935 45.9275 93.924 41.0951 93.924V95.924C46.1188 95.924 50.4458 95.1659 54.0434 93.6087L53.2489 91.7733ZM121.922 40.1H122.922V39.1H121.922V40.1ZM121.922 94V95H122.922V94H121.922ZM111.681 94L110.908 94.6346L111.208 95H111.681V94ZM84.8077 61.275L85.5805 60.6404L83.8077 58.4815V61.275H84.8077ZM84.8077 94V95H85.8077V94H84.8077ZM72.4877 94H71.4877V95H72.4877V94ZM72.4877 40.1V39.1H71.4877V40.1H72.4877ZM82.8057 40.1L83.5794 39.4665L83.2793 39.1H82.8057V40.1ZM109.602 72.825L108.828 73.4585L110.602 75.6247V72.825H109.602ZM109.602 40.1V39.1H108.602V40.1H109.602ZM120.922 40.1V94H122.922V40.1H120.922ZM121.922 93H111.681V95H121.922V93ZM112.454 93.3654L85.5805 60.6404L84.0349 61.9096L110.908 94.6346L112.454 93.3654ZM83.8077 61.275V94H85.8077V61.275H83.8077ZM84.8077 93H72.4877V95H84.8077V93ZM73.4877 94V40.1H71.4877V94H73.4877ZM72.4877 41.1H82.8057V39.1H72.4877V41.1ZM82.032 40.7335L108.828 73.4585L110.375 72.1915L83.5794 39.4665L82.032 40.7335ZM110.602 72.825V40.1H108.602V72.825H110.602ZM109.602 41.1H121.922V39.1H109.602V41.1ZM154.309 72.825L155.085 72.1935L154.37 71.3166L153.588 72.1328L154.309 72.825ZM147.071 80.371L146.35 79.6788L146.071 79.9689V80.371H147.071ZM147.071 94V95H148.071V94H147.071ZM134.674 94H133.674V95H134.674V94ZM134.674 40.1V39.1H133.674V40.1H134.674ZM147.071 40.1H148.071V39.1H147.071V40.1ZM147.071 65.279H146.071V67.7873L147.797 65.967L147.071 65.279ZM170.941 40.1V39.1H170.511L170.215 39.412L170.941 40.1ZM184.801 40.1L185.534 40.7808L187.096 39.1H184.801V40.1ZM162.471 64.124L161.739 63.4432L161.155 64.0716L161.687 64.7445L162.471 64.124ZM186.11 94V95H188.177L186.894 93.3795L186.11 94ZM171.557 94L170.782 94.6315L171.082 95H171.557V94ZM153.588 72.1328L146.35 79.6788L147.793 81.0632L155.031 73.5172L153.588 72.1328ZM146.071 80.371V94H148.071V80.371H146.071ZM147.071 93H134.674V95H147.071V93ZM135.674 94V40.1H133.674V94H135.674ZM134.674 41.1H147.071V39.1H134.674V41.1ZM146.071 40.1V65.279H148.071V40.1H146.071ZM147.797 65.967L171.667 40.788L170.215 39.412L146.345 64.591L147.797 65.967ZM170.941 41.1H184.801V39.1H170.941V41.1ZM184.069 39.4192L161.739 63.4432L163.204 64.8048L185.534 40.7808L184.069 39.4192ZM161.687 64.7445L185.326 94.6205L186.894 93.3795L163.255 63.5035L161.687 64.7445ZM186.11 93H171.557V95H186.11V93ZM172.333 93.3685L155.085 72.1935L153.534 73.4565L170.782 94.6315L172.333 93.3685ZM226.014 94L225.192 94.5692L225.49 95H226.014V94ZM215.619 78.985L216.441 78.4158L216.143 77.985H215.619V78.985ZM204.146 78.985V77.985H203.146V78.985H204.146ZM204.146 94V95H205.146V94H204.146ZM191.672 94H190.672V95H191.672V94ZM191.672 40.1V39.1H190.672V40.1H191.672ZM227.4 42.487L226.985 43.3969L226.99 43.3992L227.4 42.487ZM235.485 70.053L234.653 69.4983L234.651 69.5017L235.485 70.053ZM227.323 76.675L226.925 75.7579L225.804 76.2451L226.503 77.2472L227.323 76.675ZM239.412 94V95H241.329L240.232 93.4278L239.412 94ZM222.857 52.728L222.213 53.4929L222.219 53.4979L222.225 53.5029L222.857 52.728ZM204.146 50.264V49.264H203.146V50.264H204.146ZM204.146 69.052H203.146V70.052H204.146V69.052ZM222.857 66.588L223.501 67.3529L223.501 67.3529L222.857 66.588ZM226.836 93.4308L216.441 78.4158L214.797 79.5542L225.192 94.5692L226.836 93.4308ZM215.619 77.985H215.003V79.985H215.619V77.985ZM215.003 77.985H204.146V79.985H215.003V77.985ZM203.146 78.985V94H205.146V78.985H203.146ZM204.146 93H191.672V95H204.146V93ZM192.672 94V40.1H190.672V94H192.672ZM191.672 41.1H215.003V39.1H191.672V41.1ZM215.003 41.1C219.668 41.1 223.653 41.8776 226.985 43.3969L227.815 41.5771C224.166 39.9137 219.886 39.1 215.003 39.1V41.1ZM226.99 43.3992C230.378 44.9209 232.94 47.0606 234.723 49.8075L236.401 48.7185C234.385 45.6134 231.507 43.2357 227.81 41.5748L226.99 43.3992ZM234.723 49.8075C236.503 52.5484 237.411 55.8179 237.411 59.658H239.411C239.411 55.49 238.42 51.8296 236.401 48.7185L234.723 49.8075ZM237.411 59.658C237.411 63.4928 236.48 66.7586 234.653 69.4983L236.317 70.6077C238.392 67.4954 239.411 63.8312 239.411 59.658H237.411ZM234.651 69.5017C232.871 72.1958 230.311 74.2855 226.925 75.7579L227.722 77.5921C231.419 75.9845 234.301 73.6595 236.32 70.6043L234.651 69.5017ZM226.503 77.2472L238.592 94.5722L240.232 93.4278L228.143 76.1028L226.503 77.2472ZM239.412 93H226.014V95H239.412V93ZM226.783 59.658C226.783 56.3964 225.721 53.7733 223.489 51.9531L222.225 53.5029C223.895 54.8654 224.783 56.8623 224.783 59.658H226.783ZM223.501 51.9631C221.302 50.1113 218.186 49.264 214.31 49.264V51.264C217.929 51.264 220.511 52.0593 222.213 53.4929L223.501 51.9631ZM214.31 49.264H204.146V51.264H214.31V49.264ZM203.146 50.264V69.052H205.146V50.264H203.146ZM204.146 70.052H214.31V68.052H204.146V70.052ZM214.31 70.052C218.186 70.052 221.302 69.2047 223.501 67.3529L222.213 65.8231C220.511 67.2567 217.929 68.052 214.31 68.052V70.052ZM223.501 67.3529C225.717 65.4875 226.783 62.8754 226.783 59.658H224.783C224.783 62.3952 223.899 64.4031 222.213 65.8231L223.501 67.3529ZM253.607 93.23L253.321 94.1882L253.328 94.1904L253.336 94.1924L253.607 93.23ZM244.059 88.687L243.148 88.276L242.822 88.9988L243.451 89.4809L244.059 88.687ZM248.294 79.293L248.886 78.4866L247.89 77.7565L247.383 78.882L248.294 79.293ZM256.533 83.374L256.84 82.4223L256.84 82.4223L256.533 83.374ZM273.935 83.374L274.454 84.2292L274.463 84.2235L274.472 84.2177L273.935 83.374ZM274.936 75.982L274.27 76.7272L274.29 76.7456L274.312 76.7629L274.936 75.982ZM271.086 73.903L270.77 74.8517L270.779 74.8547L271.086 73.903ZM264.772 72.209L264.541 73.182L264.547 73.1834L264.772 72.209ZM254.685 69.283L255.034 68.3459L255.034 68.3459L254.685 69.283ZM247.909 64.586L247.15 65.2368L247.159 65.247L247.909 64.586ZM247.678 47.492L248.508 48.0506L248.513 48.0428L247.678 47.492ZM255.301 41.409L254.904 40.4913L254.899 40.4935L255.301 41.409ZM277.939 40.408L278.182 39.4379L278.182 39.4379L277.939 40.408ZM286.563 43.95L287.49 44.3266L287.806 43.5476L287.093 43.102L286.563 43.95ZM282.713 53.421L282.22 54.2909L283.211 54.8526L283.64 53.7976L282.713 53.421ZM259.998 50.88L259.444 50.0479L259.438 50.0519L259.432 50.056L259.998 50.88ZM260.383 59.504L259.946 60.4032L259.96 60.4103L259.975 60.4168L260.383 59.504ZM269.238 62.122L269.469 61.1491L269.462 61.1472L269.454 61.1455L269.238 62.122ZM279.325 65.048L279.674 64.1109L279.674 64.1109L279.325 65.048ZM286.024 69.668L285.273 70.3279L285.282 70.338L286.024 69.668ZM286.255 86.685L285.428 86.1227L285.426 86.1264L286.255 86.685ZM278.555 92.691L278.158 91.7733L278.158 91.7733L278.555 92.691ZM266.004 93.924C261.833 93.924 257.792 93.3714 253.879 92.2676L253.336 94.1924C257.43 95.3473 261.654 95.924 266.004 95.924V93.924ZM253.894 92.2718C250.018 91.1143 246.956 89.6461 244.667 87.8931L243.451 89.4809C245.988 91.4239 249.291 92.9844 253.321 94.1882L253.894 92.2718ZM244.971 89.098L249.206 79.704L247.383 78.882L243.148 88.276L244.971 89.098ZM247.703 80.0994C250.112 81.8664 252.958 83.2715 256.226 84.3257L256.84 82.4223C253.743 81.4231 251.096 80.1076 248.886 78.4866L247.703 80.0994ZM256.226 84.3257C259.503 85.3827 262.789 85.914 266.081 85.914V83.914C263.008 83.914 259.929 83.4186 256.84 82.4223L256.226 84.3257ZM266.081 85.914C269.682 85.914 272.523 85.3991 274.454 84.2292L273.417 82.5188C271.959 83.4022 269.565 83.914 266.081 83.914V85.914ZM274.472 84.2177C276.404 82.9885 277.476 81.2826 277.476 79.139H275.476C275.476 80.4861 274.855 81.6035 273.398 82.5303L274.472 84.2177ZM277.476 79.139C277.476 77.5433 276.818 76.2068 275.561 75.2011L274.312 76.7629C275.108 77.3998 275.476 78.168 275.476 79.139H277.476ZM275.603 75.2368C274.499 74.2488 273.082 73.4961 271.393 72.9513L270.779 74.8547C272.273 75.3366 273.423 75.9698 274.27 76.7272L275.603 75.2368ZM271.403 72.9543C269.819 72.4265 267.68 71.8536 264.997 71.2346L264.547 73.1834C267.204 73.7964 269.274 74.3528 270.77 74.8517L271.403 72.9543ZM265.003 71.2361C260.919 70.266 257.6 69.3016 255.034 68.3459L254.336 70.2201C257.007 71.2151 260.413 72.2014 264.541 73.1819L265.003 71.2361ZM255.034 68.3459C252.575 67.4298 250.453 65.9609 248.66 63.925L247.159 65.247C249.164 67.523 251.559 69.1855 254.336 70.2201L255.034 68.3459ZM248.669 63.9352C247.014 62.0045 246.137 59.3818 246.137 55.962H244.137C244.137 59.7289 245.109 62.8555 247.15 65.2368L248.669 63.9352ZM246.137 55.962C246.137 53.0228 246.929 50.3952 248.508 48.0506L246.849 46.9334C245.04 49.6194 244.137 52.6385 244.137 55.962H246.137ZM248.513 48.0428C250.081 45.6669 252.456 43.7517 255.704 42.3245L254.899 40.4935C251.371 42.0437 248.664 44.1838 246.844 46.9412L248.513 48.0428ZM255.699 42.3267C258.98 40.9065 263.02 40.176 267.852 40.176V38.176C262.829 38.176 258.502 38.9341 254.904 40.4913L255.699 42.3267ZM267.852 40.176C271.211 40.176 274.492 40.5769 277.697 41.3781L278.182 39.4379C274.816 38.5964 271.372 38.176 267.852 38.176V40.176ZM277.697 41.3781C280.897 42.1782 283.671 43.3218 286.033 44.798L287.093 43.102C284.527 41.4982 281.552 40.2805 278.182 39.4379L277.697 41.3781ZM285.637 43.5734L281.787 53.0444L283.64 53.7976L287.49 44.3266L285.637 43.5734ZM283.207 52.5511C278.1 49.6554 272.952 48.186 267.775 48.186V50.186C272.557 50.186 277.368 51.5399 282.22 54.2909L283.207 52.5511ZM267.775 48.186C264.212 48.186 261.382 48.7558 259.444 50.0479L260.553 51.712C262.003 50.7456 264.357 50.186 267.775 50.186V48.186ZM259.432 50.056C257.543 51.3545 256.534 53.1393 256.534 55.346H258.534C258.534 53.8567 259.168 52.6641 260.565 51.704L259.432 50.056ZM256.534 55.346C256.534 56.4507 256.821 57.4607 257.422 58.3367C258.017 59.2051 258.88 59.8846 259.946 60.4032L260.821 58.6048C259.988 58.1994 259.426 57.7239 259.072 57.2063C258.722 56.6963 258.534 56.0893 258.534 55.346H256.534ZM259.975 60.4168C262.02 61.3318 265.051 62.2217 269.023 63.0985L269.454 61.1455C265.52 60.277 262.648 59.4216 260.792 58.5912L259.975 60.4168ZM269.007 63.0949C273.092 64.065 276.411 65.0294 278.976 65.9851L279.674 64.1109C277.004 63.1159 273.598 62.1296 269.469 61.1491L269.007 63.0949ZM278.976 65.9851C281.439 66.9025 283.534 68.3471 285.273 70.3278L286.776 69.0082C284.819 66.7796 282.448 65.1441 279.674 64.1109L278.976 65.9851ZM285.282 70.338C286.975 72.2137 287.873 74.8006 287.873 78.215H289.873C289.873 74.4427 288.873 71.3317 286.767 68.998L285.282 70.338ZM287.873 78.215C287.873 81.0928 287.062 83.7205 285.428 86.1227L287.082 87.2473C288.939 84.5162 289.873 81.4972 289.873 78.215H287.873ZM285.426 86.1264C283.861 88.4495 281.463 90.3426 278.158 91.7733L278.953 93.6087C282.526 92.0621 285.261 89.9512 287.085 87.2436L285.426 86.1264ZM278.158 91.7733C274.877 93.1935 270.837 93.924 266.004 93.924V95.924C271.028 95.924 275.355 95.1659 278.953 93.6087L278.158 91.7733Z" fill="black"/>
<rect x="20" width="167" height="28" fill="#0069DD"/>
</svg>
